<svg width="24" height="24" viewBox="0 0 24 24" fill="none" xmlns="http://www.w3.org/2000/svg">
<path d="M3.00011 17H15.0001C15.255 17.0003 15.5001 17.0979 15.6855 17.2728C15.8708 17.4478 15.9823 17.687 15.9973 17.9414C16.0122 18.1958 15.9294 18.4464 15.7658 18.6418C15.6023 18.8373 15.3702 18.9629 15.1171 18.993L15.0001 19H3.00011C2.74523 18.9997 2.50008 18.9021 2.31474 18.7272C2.12941 18.5522 2.01788 18.313 2.00294 18.0586C1.988 17.8042 2.07079 17.5536 2.23438 17.3582C2.39797 17.1627 2.63002 17.0371 2.88311 17.007L3.00011 17ZM3.00011 13H21.0001C21.255 13.0003 21.5001 13.0979 21.6855 13.2728C21.8708 13.4478 21.9823 13.687 21.9973 13.9414C22.0122 14.1958 21.9294 14.4464 21.7658 14.6418C21.6023 14.8373 21.3702 14.9629 21.1171 14.993L21.0001 15H3.00011C2.74523 14.9997 2.50008 14.9021 2.31474 14.7272C2.12941 14.5522 2.01788 14.313 2.00294 14.0586C1.988 13.8042 2.07079 13.5536 2.23438 13.3582C2.39797 13.1627 2.63002 13.0371 2.88311 13.007L3.00011 13ZM3.00011 9H21.0001C21.255 9.00028 21.5001 9.09788 21.6855 9.27285C21.8708 9.44782 21.9823 9.68695 21.9973 9.94139C22.0122 10.1958 21.9294 10.4464 21.7658 10.6418C21.6023 10.8373 21.3702 10.9629 21.1171 10.993L21.0001 11H3.00011C2.74523 10.9997 2.50008 10.9021 2.31474 10.7272C2.12941 10.5522 2.01788 10.313 2.00294 10.0586C1.988 9.80416 2.07079 9.55362 2.23438 9.35817C2.39797 9.16271 2.63002 9.0371 2.88311 9.007L3.00011 9ZM3.00011 5H21.0001C21.255 5.00028 21.5001 5.09788 21.6855 5.27285C21.8708 5.44782 21.9823 5.68695 21.9973 5.94139C22.0122 6.19584 21.9294 6.44638 21.7658 6.64183C21.6023 6.83729 21.3702 6.9629 21.1171 6.993L21.0001 7H3.00011C2.74523 6.99972 2.50008 6.90212 2.31474 6.72715C2.12941 6.55218 2.01788 6.31305 2.00294 6.05861C1.988 5.80416 2.07079 5.55362 2.23438 5.35817C2.39797 5.16271 2.63002 5.0371 2.88311 5.007L3.00011 5Z" fill="black"/>
</svg>
