<svg width="22" height="22" viewBox="0 0 22 22" fill="none" xmlns="http://www.w3.org/2000/svg">
<path d="M1.83333 5.50008C1.83333 5.01385 2.02649 4.54754 2.3703 4.20372C2.71412 3.8599 3.18044 3.66675 3.66667 3.66675H18.3333C18.8196 3.66675 19.2859 3.8599 19.6297 4.20372C19.9735 4.54754 20.1667 5.01385 20.1667 5.50008V16.5001C20.1667 16.9863 19.9735 17.4526 19.6297 17.7964C19.2859 18.1403 18.8196 18.3334 18.3333 18.3334H3.66667C3.18044 18.3334 2.71412 18.1403 2.3703 17.7964C2.02649 17.4526 1.83333 16.9863 1.83333 16.5001V5.50008ZM5.05908 5.50008L11 10.6985L16.9409 5.50008H5.05908ZM18.3333 6.71833L11.6041 12.607C11.4369 12.7535 11.2222 12.8342 11 12.8342C10.7778 12.8342 10.5631 12.7535 10.3959 12.607L3.66667 6.71833V16.5001H18.3333V6.71833Z" fill="white"/>
</svg>
