<svg width="23" height="24" viewBox="0 0 23 24" fill="none" xmlns="http://www.w3.org/2000/svg">
<path d="M7.475 2.41675H15.525C18.5917 2.41675 21.0833 4.90841 21.0833 7.97508V16.0251C21.0833 17.4992 20.4977 18.913 19.4553 19.9554C18.4129 20.9978 16.9992 21.5834 15.525 21.5834H7.475C4.40833 21.5834 1.91667 19.0917 1.91667 16.0251V7.97508C1.91667 6.50092 2.50228 5.08714 3.54467 4.04475C4.58706 3.00236 6.00084 2.41675 7.475 2.41675ZM7.28333 4.33341C6.36834 4.33341 5.49082 4.6969 4.84382 5.3439C4.19682 5.9909 3.83333 6.86842 3.83333 7.78341V16.2167C3.83333 18.1238 5.37625 19.6667 7.28333 19.6667H15.7167C16.6317 19.6667 17.5092 19.3033 18.1562 18.6563C18.8032 18.0093 19.1667 17.1317 19.1667 16.2167V7.78341C19.1667 5.87633 17.6238 4.33341 15.7167 4.33341H7.28333ZM16.5313 5.77091C16.849 5.77091 17.1537 5.89712 17.3783 6.12178C17.603 6.34643 17.7292 6.65112 17.7292 6.96883C17.7292 7.28654 17.603 7.59123 17.3783 7.81589C17.1537 8.04054 16.849 8.16675 16.5313 8.16675C16.2135 8.16675 15.9088 8.04054 15.6842 7.81589C15.4595 7.59123 15.3333 7.28654 15.3333 6.96883C15.3333 6.65112 15.4595 6.34643 15.6842 6.12178C15.9088 5.89712 16.2135 5.77091 16.5313 5.77091ZM11.5 7.20842C12.7708 7.20842 13.9896 7.71325 14.8882 8.61186C15.7868 9.51047 16.2917 10.7293 16.2917 12.0001C16.2917 13.2709 15.7868 14.4897 14.8882 15.3883C13.9896 16.2869 12.7708 16.7917 11.5 16.7917C10.2292 16.7917 9.01039 16.2869 8.11178 15.3883C7.21317 14.4897 6.70833 13.2709 6.70833 12.0001C6.70833 10.7293 7.21317 9.51047 8.11178 8.61186C9.01039 7.71325 10.2292 7.20842 11.5 7.20842ZM11.5 9.12508C10.7375 9.12508 10.0062 9.42798 9.46707 9.96715C8.9279 10.5063 8.625 11.2376 8.625 12.0001C8.625 12.7626 8.9279 13.4938 9.46707 14.033C10.0062 14.5722 10.7375 14.8751 11.5 14.8751C12.2625 14.8751 12.9938 14.5722 13.5329 14.033C14.0721 13.4938 14.375 12.7626 14.375 12.0001C14.375 11.2376 14.0721 10.5063 13.5329 9.96715C12.9938 9.42798 12.2625 9.12508 11.5 9.12508Z" fill="white"/>
</svg>
