<svg width="250" height="250" viewBox="0 0 250 250" fill="none" xmlns="http://www.w3.org/2000/svg">
<path d="M101.208 90.2708C107.514 87.0435 114.805 86.3144 121.625 88.2292C138.969 91.2917 152.25 107.625 152.25 126V155.604C152.25 166.833 143.052 176.021 131.834 176.021H111.417L89.9793 218.896C88.8508 221.249 87.2273 223.331 85.2199 224.999C83.2126 226.667 80.8687 227.882 78.3485 228.56C75.8283 229.239 73.1913 229.365 70.6179 228.93C68.0444 228.496 65.5952 227.51 63.4377 226.042C55.271 220.938 53.2293 210.729 57.3127 202.562L70.5835 176.021" stroke="black" stroke-width="16" stroke-miterlimit="10" stroke-linecap="round" stroke-linejoin="round"/>
<path d="M34.8543 176.021L21.5835 202.563C17.5001 210.729 19.5418 220.938 27.7085 226.042C29.866 227.51 32.3152 228.496 34.8887 228.93C37.4621 229.365 40.0991 229.239 42.6193 228.56C45.1394 227.882 47.4834 226.667 49.4907 224.999C51.4981 223.331 53.1216 221.249 54.2501 218.896L56.021 216.104M219.427 229.188H137.761M168.386 86.2708H188.802C206.156 86.2708 219.427 99.5417 219.427 116.896V147.521M219.427 147.521H209.219C197.99 147.521 188.802 156.708 188.802 167.938V229.188H239.844V167.938C239.844 156.708 230.656 147.521 219.427 147.521ZM85.896 144.375H27.7085C26.1394 144.353 24.6145 143.852 23.3376 142.94C22.0607 142.028 21.0926 140.748 20.5626 139.271L10.3543 102.521C9.33345 97.4167 12.396 93.3333 17.5001 93.3333H66.5001C69.5626 93.3333 72.6251 95.375 73.646 98.4375L85.896 144.375ZM85.896 144.375H116.521M111.417 71.8542C114.768 71.8542 118.087 71.1941 121.183 69.9115C124.28 68.629 127.093 66.7491 129.463 64.3793C131.833 62.0095 133.712 59.1961 134.995 56.0997C136.278 53.0034 136.938 49.6848 136.938 46.3333C136.938 42.9819 136.278 39.6633 134.995 36.5669C133.712 33.4706 131.833 30.6572 129.463 28.2874C127.093 25.9175 124.28 24.0377 121.183 22.7552C118.087 21.4726 114.768 20.8125 111.417 20.8125C104.648 20.8125 98.1569 23.5013 93.3708 28.2874C88.5848 33.0735 85.896 39.5648 85.896 46.3333C85.896 53.1019 88.5848 59.5932 93.3708 64.3793C98.1569 69.1654 104.648 71.8542 111.417 71.8542Z" stroke="black" stroke-width="16" stroke-miterlimit="10" stroke-linecap="round" stroke-linejoin="round"/>
</svg>
