<svg width="250" height="250" viewBox="0 0 250 250" fill="none" xmlns="http://www.w3.org/2000/svg">
<path d="M226.146 90.7292C239.167 77.7083 233.229 62.5 226.146 55.1042L194.896 23.8542C181.771 10.8333 166.667 16.7708 159.271 23.8542L141.562 41.6667H114.583C94.7916 41.6667 83.3333 52.0833 77.5 64.0625L31.25 110.313V151.979L23.8541 159.271C10.8333 172.396 16.7708 187.5 23.8541 194.896L55.1041 226.146C60.7291 231.771 66.7708 233.854 72.5 233.854C79.8958 233.854 86.6666 230.208 90.7291 226.146L118.854 197.917H156.25C173.958 197.917 182.917 186.875 186.146 176.042C197.917 172.917 204.375 163.958 206.979 155.208C223.125 151.042 229.167 135.729 229.167 125V93.75H223.021L226.146 90.7292ZM208.333 125C208.333 129.688 206.354 135.417 197.917 135.417H187.5V145.833C187.5 150.521 185.521 156.25 177.083 156.25H166.667V166.667C166.667 171.354 164.687 177.083 156.25 177.083H110.312L76.1458 211.25C72.9166 214.271 71.0416 212.5 69.8958 211.354L38.75 180.312C35.7291 177.083 37.5 175.208 38.6458 174.062L52.0833 160.521V118.854L72.9166 98.0208V114.583C72.9166 127.188 81.25 145.833 104.167 145.833C127.083 145.833 135.417 127.188 135.417 114.583H208.333V125ZM211.354 75.9375L193.646 93.75H114.583V114.583C114.583 119.271 112.604 125 104.167 125C95.7291 125 93.75 119.271 93.75 114.583V83.3333C93.75 78.5417 95.5208 62.5 114.583 62.5H150.104L173.854 38.75C177.083 35.7292 178.958 37.5 180.104 38.6458L211.25 69.6875C214.271 72.9167 212.5 74.7917 211.354 75.9375Z" fill="black"/>
</svg>
