<svg width="250" height="267" viewBox="0 0 250 267" fill="none" xmlns="http://www.w3.org/2000/svg">
<path d="M125 116.812C113.949 116.813 103.351 112.417 95.5371 104.593C87.7231 96.7696 83.3333 86.1583 83.3333 75.0938C83.3333 64.0292 87.7231 53.4179 95.5371 45.5941C103.351 37.7704 113.949 33.375 125 33.375C136.051 33.375 146.649 37.7704 154.463 45.5941C162.277 53.4179 166.667 64.0292 166.667 75.0938C166.667 86.1583 162.277 96.7696 154.463 104.593C146.649 112.417 136.051 116.812 125 116.812ZM125 50.0625C111.167 50.0625 99.9999 61.2431 99.9999 75.0938C99.9999 88.9444 111.167 100.125 125 100.125C138.833 100.125 150 88.9444 150 75.0938C150 61.2431 138.833 50.0625 125 50.0625Z" fill="black"/>
<path d="M225 183.562C220.333 183.562 216.667 179.891 216.667 175.219C216.667 170.546 220.333 166.875 225 166.875C229.667 166.875 233.333 163.204 233.333 158.531C233.333 147.467 228.943 136.855 221.129 129.032C213.315 121.208 202.717 116.813 191.667 116.812H175C170.333 116.812 166.667 113.141 166.667 108.469C166.667 103.796 170.333 100.125 175 100.125C188.833 100.125 200 88.9444 200 75.0938C200 61.2431 188.833 50.0625 175 50.0625C170.333 50.0625 166.667 46.3913 166.667 41.7188C166.667 37.0462 170.333 33.375 175 33.375C186.051 33.375 196.649 37.7704 204.463 45.5941C212.277 53.4179 216.667 64.0292 216.667 75.0938C216.667 85.44 213 94.785 206.667 102.127C231.5 108.802 250 131.497 250 158.531C250 172.382 238.833 183.562 225 183.562ZM25 183.562C11.1667 183.562 0 172.382 0 158.531C0 131.497 18.3333 108.802 43.3333 102.127C37.1667 94.785 33.3333 85.44 33.3333 75.0938C33.3333 64.0292 37.7232 53.4179 45.5372 45.5941C53.3512 37.7704 63.9493 33.375 75 33.375C79.6667 33.375 83.3333 37.0462 83.3333 41.7188C83.3333 46.3913 79.6667 50.0625 75 50.0625C61.1667 50.0625 50 61.2431 50 75.0938C50 88.9444 61.1667 100.125 75 100.125C79.6667 100.125 83.3333 103.796 83.3333 108.469C83.3333 113.141 79.6667 116.812 75 116.812H58.3333C47.2826 116.813 36.6846 121.208 28.8705 129.032C21.0565 136.855 16.6667 147.467 16.6667 158.531C16.6667 163.204 20.3333 166.875 25 166.875C29.6667 166.875 33.3333 170.546 33.3333 175.219C33.3333 179.891 29.6667 183.562 25 183.562ZM175 233.625H75C61.1667 233.625 50 222.444 50 208.594V191.906C50 159.699 76.1667 133.5 108.333 133.5H141.667C173.833 133.5 200 159.699 200 191.906V208.594C200 222.444 188.833 233.625 175 233.625ZM108.333 150.188C97.2826 150.188 86.6846 154.583 78.8705 162.407C71.0565 170.23 66.6667 180.842 66.6667 191.906V208.594C66.6667 213.266 70.3333 216.938 75 216.938H175C179.667 216.938 183.333 213.266 183.333 208.594V191.906C183.333 180.842 178.943 170.23 171.129 162.407C163.315 154.583 152.717 150.188 141.667 150.188H108.333Z" fill="black"/>
</svg>
