<svg width="24" height="24" viewBox="0 0 24 24" fill="none" xmlns="http://www.w3.org/2000/svg">
<path d="M21.0001 15.9999V10.0999L12.9501 14.4749C12.6501 14.6416 12.3334 14.7249 12.0001 14.7249C11.6668 14.7249 11.3501 14.6416 11.0501 14.4749L2.60011 9.87492C2.41677 9.77492 2.28744 9.64992 2.21211 9.49992C2.13677 9.34992 2.09944 9.18325 2.10011 8.99992C2.10077 8.81658 2.13844 8.64992 2.21311 8.49992C2.28777 8.34992 2.41677 8.22492 2.60011 8.12492L11.0501 3.52492C11.2001 3.44158 11.3544 3.37892 11.5131 3.33692C11.6718 3.29492 11.8341 3.27425 12.0001 3.27492C12.1661 3.27558 12.3288 3.29658 12.4881 3.33792C12.6474 3.37925 12.8014 3.44158 12.9501 3.52492L22.4751 8.72492C22.6418 8.80825 22.7711 8.92925 22.8631 9.08792C22.9551 9.24658 23.0008 9.41725 23.0001 9.59992V15.9999C23.0001 16.2833 22.9041 16.5209 22.7121 16.7129C22.5201 16.9049 22.2828 17.0006 22.0001 16.9999C21.7174 16.9993 21.4801 16.9033 21.2881 16.7119C21.0961 16.5206 21.0001 16.2833 21.0001 15.9999ZM11.0501 20.4749L6.05011 17.7749C5.71677 17.5916 5.45844 17.3416 5.27511 17.0249C5.09177 16.7083 5.00011 16.3666 5.00011 15.9999V12.1999L11.0501 15.4749C11.3501 15.6416 11.6668 15.7249 12.0001 15.7249C12.3334 15.7249 12.6501 15.6416 12.9501 15.4749L19.0001 12.1999V15.9999C19.0001 16.3666 18.9084 16.7083 18.7251 17.0249C18.5418 17.3416 18.2834 17.5916 17.9501 17.7749L12.9501 20.4749C12.8001 20.5583 12.6461 20.6209 12.4881 20.6629C12.3301 20.7049 12.1674 20.7256 12.0001 20.7249C11.8328 20.7243 11.6701 20.7036 11.5121 20.6629C11.3541 20.6223 11.2001 20.5596 11.0501 20.4749Z" fill="black"/>
</svg>
