<svg width="27" height="27" viewBox="0 0 27 27" fill="none" xmlns="http://www.w3.org/2000/svg">
<mask id="mask0_81_240" style="mask-type:luminance" maskUnits="userSpaceOnUse" x="0" y="0" width="27" height="27">
<path d="M27 0H0V27H27V0Z" fill="white"/>
</mask>
<g mask="url(#mask0_81_240)">
<path d="M24.7499 13.5C24.7499 7.30125 19.6986 2.25 13.4999 2.25C7.30113 2.25 2.24988 7.30125 2.24988 13.5C2.24988 16.7625 3.65613 19.6988 5.88363 21.7575C5.88363 21.7688 5.88363 21.7688 5.87238 21.78C5.98488 21.8925 6.11988 21.9825 6.23238 22.0838C6.29988 22.14 6.35613 22.1963 6.42363 22.2413C6.62613 22.41 6.85113 22.5675 7.06488 22.725C7.14363 22.7813 7.21113 22.8263 7.28988 22.8825C7.50363 23.0288 7.72863 23.1638 7.96488 23.2875C8.04363 23.3325 8.13363 23.3888 8.21238 23.4338C8.43738 23.5575 8.67363 23.67 8.92113 23.7713C9.01113 23.8163 9.10113 23.8613 9.19113 23.895C9.43863 23.9963 9.68613 24.0863 9.93363 24.165C10.0236 24.1988 10.1136 24.2325 10.2036 24.255C10.4736 24.3338 10.7436 24.4013 11.0136 24.4688C11.0924 24.4913 11.1711 24.5138 11.2611 24.525C11.5761 24.5925 11.8911 24.6375 12.2174 24.6713C12.2624 24.6713 12.3074 24.6825 12.3524 24.6938C12.7349 24.7275 13.1174 24.75 13.4999 24.75C13.8824 24.75 14.2649 24.7275 14.6361 24.6938C14.6811 24.6938 14.7261 24.6825 14.7711 24.6713C15.0974 24.6375 15.4124 24.5925 15.7274 24.525C15.8061 24.5138 15.8849 24.48 15.9749 24.4688C16.2449 24.4013 16.5261 24.345 16.7849 24.255C16.8749 24.2213 16.9649 24.1875 17.0549 24.165C17.3024 24.075 17.5611 23.9963 17.7974 23.895C17.8874 23.8613 17.9774 23.8163 18.0674 23.7713C18.3036 23.67 18.5399 23.5575 18.7761 23.4338C18.8661 23.3888 18.9449 23.3325 19.0236 23.2875C19.2486 23.1525 19.4736 23.0288 19.6986 22.8825C19.7774 22.8375 19.8449 22.7813 19.9236 22.725C20.1486 22.5675 20.3624 22.41 20.5649 22.2413C20.6324 22.185 20.6886 22.1288 20.7561 22.0838C20.8799 21.9825 21.0036 21.8813 21.1161 21.78C21.1161 21.7688 21.1161 21.7688 21.1049 21.7575C23.3436 19.6988 24.7499 16.7625 24.7499 13.5ZM19.0574 19.0913C16.0086 17.0438 11.0136 17.0438 7.94238 19.0913C7.44738 19.4175 7.04238 19.8 6.70488 20.2163C4.99488 18.4838 3.93738 16.11 3.93738 13.5C3.93738 8.22375 8.22363 3.9375 13.4999 3.9375C18.7761 3.9375 23.0624 8.22375 23.0624 13.5C23.0624 16.11 22.0049 18.4838 20.2949 20.2163C19.9686 19.8 19.5524 19.4175 19.0574 19.0913Z" fill="#667085"/>
<path d="M13.5 7.79591C11.1713 7.79591 9.28125 9.68591 9.28125 12.0147C9.28125 14.2984 11.07 16.1547 13.4437 16.2222C13.4775 16.2222 13.5225 16.2222 13.545 16.2222C13.5675 16.2222 13.6012 16.2222 13.6237 16.2222C13.635 16.2222 13.6463 16.2222 13.6463 16.2222C15.9188 16.1434 17.7075 14.2984 17.7188 12.0147C17.7188 9.68591 15.8287 7.79591 13.5 7.79591Z" fill="#667085"/>
</g>
</svg>
