<svg width="250" height="250" viewBox="0 0 250 250" fill="none" xmlns="http://www.w3.org/2000/svg">
<path fill-rule="evenodd" clip-rule="evenodd" d="M124.479 26.0417H125.521C134.896 26.0417 142.708 26.0417 148.854 26.875C155.417 27.7083 161.25 29.6875 166.042 34.4792C170.833 39.1667 172.708 45.1042 173.646 51.6667C174.271 56.1458 174.375 61.5625 174.479 67.8125C180.833 67.9167 186.354 68.125 191.25 68.6458C200.521 69.5833 208.229 71.5625 215 76.0417C220.417 79.6875 225 84.2708 228.646 89.6875C233.125 96.4583 235.104 104.167 236.042 113.437C236.979 122.396 236.979 133.75 236.979 148.021V148.854C236.979 163.125 236.979 174.479 236.042 183.438C235.104 192.708 233.125 200.417 228.646 207.187C225 212.604 220.417 217.188 215 220.833C208.229 225.313 200.521 227.292 191.25 228.229C182.187 229.167 170.937 229.167 156.667 229.167H93.3332C79.0624 229.167 67.8124 229.167 58.7499 228.229C49.4791 227.292 41.7707 225.313 34.9999 220.833C29.5833 217.188 24.9999 212.604 21.3541 207.187C16.8749 200.417 14.8958 192.708 13.9583 183.438C13.0208 174.479 13.0208 163.125 13.0208 148.854V148.021C13.0208 133.75 13.0208 122.396 13.9583 113.437C14.8958 104.167 16.8749 96.4583 21.3541 89.6875C24.9999 84.2708 29.5833 79.6875 34.9999 76.0417C41.7707 71.5625 49.4791 69.5833 58.7499 68.6458C63.6457 68.125 69.1666 67.9167 75.5207 67.8125C75.5207 61.5625 75.7291 56.1458 76.3541 51.6667C77.1874 45.1042 79.1666 39.1667 83.9583 34.4792C88.7499 29.6875 94.5832 27.7083 101.146 26.875C107.292 26.0417 115.104 26.0417 124.479 26.0417ZM158.125 53.75C158.646 57.2917 158.75 61.7708 158.75 67.7083H91.0416C91.0416 61.7708 91.2499 57.2917 91.6666 53.75C92.2916 48.8542 93.4374 46.875 94.7916 45.5208C96.1458 44.1667 98.2291 43.0208 103.021 42.3958C108.021 41.6667 114.792 41.6667 124.792 41.6667C134.792 41.6667 141.562 41.6667 146.562 42.3958C151.354 43.0208 153.437 44.1667 154.792 45.5208C156.146 46.875 157.292 48.8542 157.917 53.75H158.125ZM60.3124 84.1667C52.2916 85 47.4999 86.5625 43.6458 89.0625C39.9999 91.4583 36.7708 94.6875 34.2708 98.3333C31.7708 102.187 30.2083 106.979 29.3749 115C28.5416 123.125 28.5416 133.646 28.5416 148.437C28.5416 163.229 28.5416 173.75 29.3749 181.875C30.2083 189.896 31.7708 194.687 34.2708 198.542C36.7708 202.187 39.8958 205.417 43.6458 207.813C47.3958 210.313 52.2916 211.875 60.3124 212.708C68.4374 213.542 78.9582 213.542 93.7499 213.542H156.25C171.042 213.542 181.562 213.542 189.687 212.708C197.708 211.875 202.5 210.313 206.354 207.813C210 205.417 213.229 202.187 215.729 198.542C218.229 194.687 219.792 189.896 220.625 181.875C221.458 173.75 221.458 163.229 221.458 148.437C221.458 133.646 221.458 123.125 220.625 115C219.792 106.979 218.229 102.187 215.729 98.3333C213.229 94.6875 210.104 91.4583 206.354 89.0625C202.604 86.5625 197.708 85 189.687 84.1667C181.562 83.3333 171.042 83.3333 156.25 83.3333H93.7499C78.9582 83.3333 68.4374 83.3333 60.3124 84.1667ZM64.7916 109.687C63.8068 109.382 62.7713 109.275 61.7449 109.372C60.7185 109.469 59.7215 109.769 58.8112 110.253C57.901 110.737 57.0956 111.396 56.4415 112.193C55.7874 112.99 55.2974 113.909 54.9999 114.896C53.7499 118.958 56.0416 123.333 60.1041 124.687L66.8749 126.771C83.0207 131.771 99.9999 134.583 117.083 135.312V148.437C117.083 152.708 120.625 156.25 124.896 156.25C129.167 156.25 132.708 152.708 132.708 148.437V135.312C149.792 134.583 166.771 131.771 182.917 126.771L189.687 124.687C193.854 123.333 196.146 118.958 194.792 114.896C194.494 113.909 194.004 112.99 193.35 112.193C192.696 111.396 191.89 110.737 190.98 110.253C190.07 109.769 189.073 109.469 188.047 109.372C187.02 109.275 185.985 109.382 185 109.687L178.229 111.875C143.418 122.406 106.27 122.406 71.4582 111.875L64.6874 109.687H64.7916Z" fill="black"/>
</svg>
